<svg id="visual" viewBox="0 0 960 540" width="960" height="540" xmlns="http://www.w3.org/2000/svg" xmlns:xlink="http://www.w3.org/1999/xlink" version="1.1"><rect x="0" y="0" width="960" height="540" fill="#F7CACA"></rect><defs><linearGradient id="grad1_0" x1="43.8%" y1="100%" x2="100%" y2="0%"><stop offset="14.444444444444446%" stop-color="#ff6f61" stop-opacity="1"></stop><stop offset="85.55555555555554%" stop-color="#ff6f61" stop-opacity="1"></stop></linearGradient></defs><defs><linearGradient id="grad1_1" x1="43.8%" y1="100%" x2="100%" y2="0%"><stop offset="14.444444444444446%" stop-color="#ff6f61" stop-opacity="1"></stop><stop offset="85.55555555555554%" stop-color="#ff9d98" stop-opacity="1"></stop></linearGradient></defs><defs><linearGradient id="grad1_2" x1="43.8%" y1="100%" x2="100%" y2="0%"><stop offset="14.444444444444446%" stop-color="#f7caca" stop-opacity="1"></stop><stop offset="85.55555555555554%" stop-color="#ff9d98" stop-opacity="1"></stop></linearGradient></defs><defs><linearGradient id="grad2_0" x1="0%" y1="100%" x2="56.3%" y2="0%"><stop offset="14.444444444444446%" stop-color="#ff6f61" stop-opacity="1"></stop><stop offset="85.55555555555554%" stop-color="#ff6f61" stop-opacity="1"></stop></linearGradient></defs><defs><linearGradient id="grad2_1" x1="0%" y1="100%" x2="56.3%" y2="0%"><stop offset="14.444444444444446%" stop-color="#ff9d98" stop-opacity="1"></stop><stop offset="85.55555555555554%" stop-color="#ff6f61" stop-opacity="1"></stop></linearGradient></defs><defs><linearGradient id="grad2_2" x1="0%" y1="100%" x2="56.3%" y2="0%"><stop offset="14.444444444444446%" stop-color="#ff9d98" stop-opacity="1"></stop><stop offset="85.55555555555554%" stop-color="#f7caca" stop-opacity="1"></stop></linearGradient></defs><g transform="translate(960, 540)"><path d="M-432 0C-439.2 -42.6 -446.4 -85.1 -417.3 -111.8C-388.2 -138.5 -322.9 -149.2 -289.3 -167C-255.6 -184.8 -253.7 -209.5 -246.1 -246.1C-238.5 -282.7 -225.3 -331.1 -196.5 -340.3C-167.7 -349.6 -123.3 -319.7 -88 -328.4C-52.7 -337.2 -26.3 -384.6 0 -432L0 0Z" fill="#fdb4b2"></path><path d="M-288 0C-292.8 -28.4 -297.6 -56.8 -278.2 -74.5C-258.8 -92.3 -215.3 -99.5 -192.8 -111.3C-170.4 -123.2 -169.1 -139.7 -164 -164C-159 -188.4 -150.2 -220.7 -131 -226.9C-111.8 -233.1 -82.2 -213.1 -58.7 -218.9C-35.1 -224.8 -17.6 -256.4 0 -288L0 0Z" fill="#ff877d"></path><path d="M-144 0C-146.4 -14.2 -148.8 -28.4 -139.1 -37.3C-129.4 -46.2 -107.6 -49.7 -96.4 -55.7C-85.2 -61.6 -84.6 -69.8 -82 -82C-79.5 -94.2 -75.1 -110.4 -65.5 -113.4C-55.9 -116.5 -41.1 -106.6 -29.3 -109.5C-17.6 -112.4 -8.8 -128.2 0 -144L0 0Z" fill="#ff6f61"></path></g><g transform="translate(0, 0)"><path d="M432 0C400.8 31.4 369.7 62.8 348.7 93.4C327.7 124 317 153.8 295.3 170.5C273.7 187.2 241.1 190.8 231.9 231.9C222.7 273 236.9 351.7 216 374.1C195.1 396.6 139.2 362.9 97.3 363.2C55.5 363.5 27.7 397.7 0 432L0 0Z" fill="#fdb4b2"></path><path d="M288 0C267.2 20.9 246.4 41.9 232.5 62.3C218.5 82.7 211.3 102.5 196.9 113.7C182.4 124.8 160.7 127.2 154.6 154.6C148.5 182 157.9 234.4 144 249.4C130.1 264.4 92.8 241.9 64.9 242.1C37 242.3 18.5 265.2 0 288L0 0Z" fill="#ff877d"></path><path d="M144 0C133.6 10.5 123.2 20.9 116.2 31.1C109.2 41.3 105.7 51.3 98.4 56.8C91.2 62.4 80.4 63.6 77.3 77.3C74.2 91 79 117.2 72 124.7C65 132.2 46.4 121 32.4 121.1C18.5 121.2 9.2 132.6 0 144L0 0Z" fill="#ff6f61"></path></g></svg>